PathFileType	4	(X/Y/Z)	c:/Users/goper/Files/vsCode/490R/osim_files/A03/A03_Static01.trc
DataRate	CameraRate	NumFrames	NumMarkers	Units                	OrigDataRate	OrigDataStartFrame	OrigNumFrames
250.00	250.00	4	36	mm	250.0	838	1674
                Frame#	Time	LPSIS			LASIS			LTH1			LTH2			LTH3			LTH4			LLFE			LMFE			LSH1			LSH2			LSH3			LSH4			LLMAL			LMMAL			LCAL			LMTP5			LTOE			LMTP1			RPSIS			RASIS			RTH1			RTH2			RTH3			RTH4			RLFE			RMFE			RSH1			RSH2			RSH3			RSH4			RLMAL			RMMAL			RCAL			RMTP1			RTOE			RMTP5		
		X1	Y1	Z1	X2	Y2	Z2	X3	Y3	Z3	X4	Y4	Z4	X5	Y5	Z5	X6	Y6	Z6	X7	Y7	Z7	X8	Y8	Z8	X9	Y9	Z9	X10	Y10	Z10	X11	Y11	Z11	X12	Y12	Z12	X13	Y13	Z13	X14	Y14	Z14	X15	Y15	Z15	X16	Y16	Z16	X17	Y17	Z17	X18	Y18	Z18	X19	Y19	Z19	X20	Y20	Z20	X21	Y21	Z21	X22	Y22	Z22	X23	Y23	Z23	X24	Y24	Z24	X25	Y25	Z25	X26	Y26	Z26	X27	Y27	Z27	X28	Y28	Z28	X29	Y29	Z29	X30	Y30	Z30	X31	Y31	Z31	X32	Y32	Z32	X33	Y33	Z33	X34	Y34	Z34	X35	Y35	Z35	X36	Y36	Z36

838	3.34800	-362.22498	1067.53381	429.84314	-121.96178	990.82690	317.28467	-187.17366	660.43811	243.81314	-178.52229	618.03387	242.83806	-125.06215	665.41821	255.35568	-126.68479	621.49622	254.13432	-174.39313	562.02661	247.09706	-145.23837	531.14618	398.64975	-230.58524	479.08682	241.56216	-235.69420	430.81473	237.51593	-169.38678	464.72433	240.32724	-184.90208	419.42276	240.48447	-283.13861	105.27287	229.99030	-263.53442	104.98012	322.24765	-350.63715	86.02101	288.70291	-139.10600	42.11458	197.79153	-101.44612	68.78620	263.98792	-127.04389	48.28320	311.47879	-363.59039	1069.96899	498.37393	-129.04300	988.93610	625.14825	-230.67860	660.46625	694.58209	-228.58032	615.79376	690.78137	-170.27887	656.65259	701.29419	-175.23997	612.70508	696.54517	-204.43716	548.86285	685.33411	-143.99956	541.46039	573.39429	-261.66537	486.34344	681.72247	-270.43591	447.95059	698.16907	-203.60205	474.45642	699.96680	-221.54642	432.84689	713.45703	-282.89743	128.94516	701.67365	-231.99808	117.95586	622.80609	-333.69650	86.34190	647.45306	-120.95840	50.12810	629.94696	-96.07810	72.05294	680.64496	-133.59581	41.25263	747.69537
839	3.35200	-362.16074	1067.50903	429.82770	-121.92436	990.81714	317.28799	-187.11943	660.41675	243.79242	-178.49106	618.02698	242.85063	-125.02347	665.41589	255.37404	-126.65354	621.50421	254.13986	-174.36317	562.00519	247.11568	-145.21335	531.13123	398.67450	-230.57002	479.08829	241.57600	-235.66960	430.81046	237.50499	-169.36812	464.73911	240.35046	-184.89513	419.42303	240.50653	-283.14069	105.25565	229.98177	-263.55911	104.97560	322.27969	-350.61795	86.01615	288.70026	-139.12059	42.10744	197.80374	-101.56386	68.62459	264.02982	-127.04321	48.26616	311.49094	-363.57553	1069.95117	498.37796	-129.02435	988.93829	625.17841	-230.68243	660.45905	694.57812	-228.56580	615.80023	690.80212	-170.24629	656.64703	701.30481	-175.17206	612.69061	696.56201	-204.40460	548.85388	685.38037	-143.97362	541.45416	573.40546	-261.65234	486.34286	681.75024	-270.42349	447.97241	698.20264	-203.56657	474.45233	699.98871	-221.29187	432.93481	713.53448	-282.87997	128.96178	701.67682	-231.99374	117.96251	622.81085	-333.88849	86.34098	647.57281	-120.94191	50.12545	629.96710	-96.07275	72.02563	680.66016	-133.61020	41.23506	747.70947
840	3.35600	-362.13724	1067.50037	429.81143	-121.88695	990.79962	317.28012	-187.08040	660.42175	243.79948	-178.45154	618.02484	242.85248	-125.01930	665.40625	255.37738	-126.61975	621.49811	254.13840	-174.33781	561.99493	247.09836	-145.19965	531.12189	398.67371	-230.54059	479.07498	241.56703	-235.87956	431.00009	237.61699	-169.38606	464.78830	240.25731	-184.86688	419.42148	240.50330	-283.12656	105.27505	229.96838	-263.55124	104.96606	322.28467	-349.88098	85.60803	288.34045	-139.10745	42.10483	197.80939	-101.44598	68.75662	263.95834	-127.07429	48.25932	311.50919	-363.53992	1069.96350	498.38394	-129.00842	988.94049	625.19769	-230.64009	660.46033	694.60321	-228.53346	615.79572	690.81360	-170.22444	656.63892	701.32867	-175.12720	612.71753	696.59851	-204.35918	548.86090	685.35046	-143.93529	541.43701	573.43628	-261.64255	486.36600	681.75732	-270.39539	447.98669	698.22388	-203.54176	474.45816	700.00946	-221.28508	432.93784	713.55103	-282.85593	128.96078	701.69702	-231.97505	117.94767	622.80627	-333.86929	86.37164	647.56842	-120.94743	50.10010	629.95612	-96.04598	72.02663	680.63312	-133.61571	41.22357	747.68311
841	3.36000	-362.12268	1067.51819	429.83395	-121.85084	990.79480	317.27966	-186.61815	660.73029	243.67609	-178.43779	618.01703	242.86194	-124.98023	665.39642	255.37842	-126.60175	621.48889	254.15071	-174.31732	562.00262	247.11113	-145.21309	531.09796	398.69449	-230.52348	479.08069	241.58356	-235.84471	430.97830	237.63782	-169.35794	464.70770	240.36172	-184.85574	419.42542	240.50269	-283.12878	105.26987	229.98528	-263.58044	104.95468	322.28949	-349.85287	85.59721	288.34720	-139.13503	42.09986	197.81181	-101.60638	68.61918	264.02832	-127.08563	48.24311	311.48755	-363.48944	1069.95923	498.34598	-129.00618	988.94073	625.19147	-230.62204	660.46747	694.62054	-228.54430	615.81000	690.84033	-170.19894	656.66827	701.35077	-175.14891	612.72498	696.60803	-204.37297	548.85394	685.38629	-143.93089	541.43829	573.46942	-261.61371	486.36200	681.78699	-270.38306	447.99603	698.23871	-203.51733	474.46298	700.01776	-221.50366	432.86932	713.50067	-282.89117	128.96733	701.68164	-231.98904	117.94206	622.80890	-333.88922	86.37077	647.57257	-120.96456	50.08607	629.96112	-96.05182	72.00373	680.64636	-133.61334	41.21116	747.71399
